<svg  viewBox="0 0 80 80" fill="none" xmlns="http://www.w3.org/2000/svg"><path fill-rule="evenodd" clip-rule="evenodd" d="M43.0896 16.2299C42.4239 15.6811 41.4003 16.1398 41.4003 16.9869V22.6489L54.3149 28.5448C55.3925 29.0366 56.08 30.0873 56.08 31.2418V50.7684C56.08 53.0219 53.5999 54.4606 51.5508 53.3957L51.0469 53.1338V54.6725C51.0469 56.6697 49.0603 58.1021 47.0867 57.5276L31.2651 52.9229C29.9645 52.5445 29.0739 51.3841 29.0739 50.0678V31.7295H24.0758C23.5095 31.7295 23.0505 32.1745 23.0505 32.7234V59.0189C23.0505 59.5676 23.5095 60.0126 24.0758 60.0126H56.8839C57.4501 60.0126 57.9092 59.5676 57.9092 59.0189V28.9028C57.9092 28.6114 57.7772 28.3346 57.5482 28.1458L43.0896 16.2299ZM29.0739 29.7422H24.0758C22.3771 29.7422 21 31.0768 21 32.7234V59.0189C21 60.6653 22.3771 62 24.0758 62H56.8839C58.5827 62 59.9597 60.6653 59.9597 59.0189V28.9028C59.9597 28.0285 59.5636 27.1982 58.8764 26.6317L44.4179 14.7158C42.4203 13.0695 39.3498 14.4455 39.3498 16.9869V21.7128L33.4603 19.0241C31.4202 18.0927 29.0739 19.5354 29.0739 21.7211V29.7422ZM31.1244 31.7295V50.0678C31.1244 50.5065 31.4213 50.8934 31.8548 51.0195L47.6763 55.6242C48.3342 55.8156 48.9964 55.3382 48.9964 54.6725V52.0682L40.9721 47.8978C39.9731 47.3787 39.3498 46.3692 39.3498 45.2705V31.7295H31.1244ZM39.3498 29.7422H31.1244V21.7211C31.1244 20.9925 31.9065 20.5116 32.5865 20.8221L39.3498 23.9097V29.7422ZM41.4003 31.7295V45.2705C41.4003 45.6368 41.6081 45.9733 41.941 46.1463L48.9964 49.8131V32.7234C48.9964 32.1745 48.5375 31.7295 47.9712 31.7295H41.4003ZM51.0469 50.8787V32.7234C51.0469 31.0768 49.6699 29.7422 47.9712 29.7422H41.4003V24.8458L53.4412 30.3427C53.8003 30.5068 54.0295 30.857 54.0295 31.2418V50.7684C54.0295 51.5196 53.2027 51.9992 52.5199 51.6442L51.0469 50.8787Ze>" fill="blue"></path></svg>